<svg id="Layer_1" xmlns="http://www.w3.org/2000/svg" width="230.8" height="98"><style>.st0{fill:#008e6a}.st1{fill:#fff}.st2{fill:#da102e}</style><path class="st0" d="M215.1 38.6C199.3 30 163 21.3 147.6 20.1l-11.6-.8c-12.4-1-19.2-1.5-24.4-1.5-5.2 0-12 .5-24.4 1.5l-11.6.9C60.3 21.3 23.9 30 8.2 38.6.8 42.6 0 45.5 0 55v24.2c0 2 .3 4.8 2.4 7 2.5 2.5 5.7 2.5 9.5 2.5h199.5c3.7 0 7 0 9.5-2.5 2.2-2.2 2.4-5 2.4-7V55c0-9.5-.8-12.4-8.2-16.4"/><path class="st1" d="M220.8 79.2c0 1.5-.2 3.7-1.7 5.3-1.8 1.8-4.3 1.8-7.7 1.8H11.9c-3.5 0-6 0-7.8-1.8-1.5-1.5-1.7-3.7-1.7-5.3V55c0-9.2.8-10.9 6.9-14.2 15.5-8.4 51.3-17 66.5-18.2l11.6-.9c12.3-.9 19.1-1.5 24.2-1.5 5.1 0 11.9.5 24.2 1.5l11.6.9c15.2 1.1 51 9.7 66.5 18.2 6.1 3.3 6.9 5 6.9 14.2v24.2z"/><path class="st1" d="M218.4 79.2c0 4.7-2.2 4.6-7.3 4.6H12.2c-5.1 0-7.3.1-7.3-4.6V55c0-8.6.5-9.3 5.6-12C25.1 35 60.3 26.3 76 25.1c3-.2 8.3-.6 8.3-.6l-1.4-2s6.5-2.8 28.2-2.8 29.7 3 29.7 3l-1.6 1.9s5.1.4 7.9.6c15.7 1.2 50.9 9.9 65.5 17.9 5.1 2.8 5.6 3.5 5.6 12v24.1h.2z"/><path class="st2" d="M16.8 80.5H8.2v-7.4s.9-.5.9-2.3V55.6c0-1.3-.9-2-.9-2v-5.5c4.7-1.9 8.6-3.2 8.6-3.2 3-.5 5.5 0 7.1 1.6 1 1 1.4 2.8 1.4 5.2v10.1c0 3.8-2.1 6.9-5.4 7.1h-4v1.8c0 1.8.9 2.3.9 2.3v7.5zm-.9-29.3v13h.9c1.4 0 1.8-2 1.8-2.8V54c0-2.6-1.4-2.8-1.8-2.8h-.9zm109-10.9c0-10.2 8.2-12.1 12.5-12.1 4.3 0 12.3 2.4 12.3 12.1v28.6c0 10.9-7.3 13.2-12.3 13.2-5.7 0-12.3-5.5-12.5-12V40.3zM135.3 68c0 3.3 4.3 3.3 4.3 0V41.9c0-3.6-4.3-3.6-4.3 0V68zm71.7.9h-6.9v8.3c2.7 3.8 5.5 4.6 8.9 4.4 3.4-.1 7.5-4.2 7.5-7.8v-6.9c0-4.3-2.5-5.5-4.8-6.9s-4.8-.8-4.8-4.3c0-2.8 3.4-4 3.4 2h6.1v-7.6c-5.1-4.8-7.9-4.2-10.3-3.8-3.7.7-6.1 5.1-6.1 11.1 0 4 1.6 5.8 2.8 7.2.9 1.1 2.8 2.2 4.2 2.7 1.5.5 3.4.5 3.4 3.5 0 4.8-3.4 4.1-3.4 2.2v-4.1zm-6.3-21.3l.6.8 1.6-1.6c1.8-1.8 1-4.1-1.2-4.1-1.9 0-1.9 2.7-.6 3.1.8.2.7.5.4 1l-.8.8M25.8 70.9l4.4-30.8L41 37.2l3.6 33.7c0 1.8.9 2.2.9 2.2h.1v7.4H36v-7.4s.8-.4.8-2.2v-1.8h-3.5v1.8c0 1.8.9 2.2.9 2.2v7.4H25v-7.4s.8-.4.8-2.2m7.9-7.1h3.1l-1.4-14.7-1.7 14.7zm88.7-23c0-2.5 1.2-3.1 1.2-3.1v-9.1l-12.8-.3v8.6s1.2.6 1.2 3.1v25c0 5.7-3.3 5.7-7.6 3.1V79c5.1 3.3 18 7.2 18-10V40.8zm54.1 32.3s-1.1-.6-1.1-3.1l-.1-23c0-2.5 1.4-3.4 1.4-3.4v-8.1l-11.8-2.8V42s1 .6 1 3.1v8.1h-4.1v-8.1c0-2.5 1.4-3.4 1.4-3.4v-9.5l-11.6-2v10.6s1.4.9 1.4 3.4v25.9c0 2.5-1.4 3.1-1.4 3.1v7.5H163v-7.5s-1.2-.6-1.2-3.1v-8.4h4.1v8.4c0 2.5-1.2 3.1-1.2 3.1v7.5h11.8v-7.6"/><path d="M178.4 73.1s1.4-.2 1.1-1.7v-24c0-2.5-1.1-3.4-1.1-3.4v-8.4l9.3 2.4 3.9 21.2.1-7.4c0-2.5-1.1-3.4-1.1-3.4v-9.2l8.6 2.9v7.4s-1.4.9-1.4 3.4v27.8h-7.7L185.7 64v7c0 2.5.9 2.3.9 2.3v7.5h-8.1l-.1-7.7" fill="#e01e39"/><path class="st2" d="M57.1 41.4v17.3h1.2c1.8 0 2.3-2.7 2.3-3.8v-9.8c0-3.5-1.8-3.7-2.3-3.7h-1.2zm1.2 39.1H47.1v-7.4s1.2-.6 1.2-3.1V46.3c0-1.7-1.2-2.7-1.2-2.7v-7.4c6.1-2.6 11.1-3.3 11.1-3.3 3.9-.6 7.1 0 9.1 2.2 1.2 1.4 2.8 2.8 2.7 7.2v14.5c.1 8.2-3.6 10.4-7.9 10.7h-5.2V70c0 2.5 1.2 3.1 1.2 3.1v7.4h.2zm11.8-10.9l5.7-39.2L90.9 29l4.9 41c0 2.5 1.2 3.1 1.2 3.1v7.4H84.1v-7.4s1.2-.6 1.2-3.1v-2.4h-5.9V70c0 2.5 1.2 3.1 1.2 3.1v7.4H69v-7.4s1.2-.6 1.2-3.1m9.9-9.8h4.6L82.3 40l-2.2 20.2z"/><path class="st2" d="M111.6 20.5c10.2 0 27.2 1.4 27.1 2.5 0 0-4.4 2.6-1.6 2.9 1.8.1 3.7.2 3.7.2 3.6 0 9.1 2 13 2.9l1.1.3-.1-1.1-1.2-9.4 5.5-5.6.7-.8-1.2-.4s-10-2.6-12.9-2.6l.7-3.7c.5-2.2-12.9-5.7-34.8-5.7s-35.5 2.9-35 5.2l1 4.2c-2.9 0-12.9 2.6-12.9 2.6l-1.2.4.7.8 5.5 5.6-1.2 9.2-.1 1.1 1.1-.3c3.9-.9 9.5-2.9 13-2.9 0 0 1.8 0 3.7-.2 2.9-.2-1.6-2.9-1.6-2.9-.2-.9 16.8-2.4 27-2.3"/><path class="st0" d="M111.6 18.9c12-.2 28.3 1.7 29.2 2.9 0 0 3.1-14.6 3.3-15.3.3-1.2-14.1-4.8-32.5-4.8S78.6 4.8 78.9 6c.2.8 3.5 15.8 3.5 15.8.9-1.2 17.2-3.1 29.2-2.9m-30.8 5l1.3.5c-.8.1-1.7.1-2.9.3-2.5.5-5.7 1.5-8.8 2.2l1.1-9.1-5.3-4.8s9.4-2.3 11.7-2.2l2.9 13.1zm61.6 0l-1.3.5c.8.1 1.7.1 3 .3 2.4.5 5.7 1.5 8.8 2.2l-1.1-9.1 5.4-4.8s-9.4-2.3-11.7-2.2l-3.1 13.1z"/><path class="st1" d="M85.6 17v-.4l1.2-.1-.9-9.8-1.2.1v-.4l7.1-.6c3.3-.3 4 1.2 4.1 2.7s-.2 3.3-3.5 3.6l-2.1.2.4 3.9L92 16v.4l-6.4.6zm4.6-5.2l.6-.1c.7-.1 1.7-1 1.6-2.2L92.2 8c-.1-.7-1.1-1.7-2-1.6h-.5l.5 5.4zm7.5 4.1v-.4l1.1-.1-.5-9.8-1.2.1v-.4l6-.4v.4l-1.1.1.5 9.8 1.2-.1v.4m10.5-10.8v.5l-4.9 9.8h.9c1.4 0 3-1.1 3.5-3.7h.5l-.1 4.1-8.8.1v-.6l4.8-9.7h-.5c-1.9 0-3.2 1.6-3.6 3.4h-.4l.2-3.8 8.4-.1zm11.8.4v.5l-5.5 9.5h.9c1.4.1 3-.9 3.7-3.5h.5l-.3 4.1-8.8-.4v-.6l5.4-9.4h-.5c-1.9-.1-3.3 1.4-3.8 3.1h-.5l.4-3.7 8.5.4zm.8 10.9v-.4h.4c.5.1.9-.8 1.3-1.4l4-8.3 2.3.1 2.7 10.6.8.1v.4l-5.7-.5v-.4l1.1.1-.8-3.2-3.1-.3-.8 1.5c-.5 1.1 0 1.5.4 1.5h.4v.4l-3-.2zm5-7.4l-1.8 3.7 2.8.3-1-4z"/><path class="st0" d="M227 98c-2.1 0-3.7-1.7-3.7-3.7 0-2.1 1.6-3.7 3.7-3.7s3.7 1.7 3.7 3.7c.1 2-1.5 3.7-3.7 3.7zm0-7c-1.8 0-3.1 1.4-3.1 3.2 0 1.8 1.3 3.2 3.1 3.2 1.9 0 3.1-1.4 3.1-3.2.1-1.7-1.2-3.2-3.1-3.2zm1.3 4.9c-.5 0-.7-.1-.7-.5V95c0-.3-.1-.5-.4-.5h-.6v1.4h-.6v-3.4h1.3c.7 0 1 .4 1 .9v.1c0 .4-.1.6-.6.7.4 0 .6.4.6.7v.4c0 .1.1.1.2.1v.5h-.2zm-.7-2.5c0-.2-.1-.4-.4-.4h-.6v1h.6c.3 0 .5-.2.5-.5v-.1z"/></svg>